<mxfile host="app.diagrams.net" modified="2023-05-03T18:35:15.430Z" agent="Mozilla/5.0 (Windows NT 10.0; Win64; x64) AppleWebKit/537.36 (KHTML, like Gecko) Chrome/108.0.0.0 Safari/537.36" version="21.2.3" etag="MfI7HkemjoGR1ChKM2fW" type="github">
  <diagram name="Page-1" id="F1vqICfRp1APQyTzCCjY">
    <mxGraphModel>
      <root>
        <mxCell id="0" />
        <mxCell id="1" parent="0" />
      </root>
    </mxGraphModel>
  </diagram>
</mxfile>
